<mxfile host="65bd71144e">
    <diagram id="ySa-466JTiWgdu0O6x1B" name="Page-1">
        <mxGraphModel dx="1332" dy="789" grid="1" gridSize="10" guides="1" tooltips="1" connect="1" arrows="1" fold="1" page="1" pageScale="1" pageWidth="850" pageHeight="1100" math="0" shadow="0">
            <root>
                <mxCell id="0"/>
                <mxCell id="1" parent="0"/>
                <mxCell id="42" value="" style="rounded=1;whiteSpace=wrap;html=1;strokeWidth=3;fontSize=14;strokeColor=none;fillColor=#f8cecc;arcSize=7;" vertex="1" parent="1">
                    <mxGeometry x="200" width="670" height="137.5" as="geometry"/>
                </mxCell>
                <mxCell id="30" value="" style="rounded=1;whiteSpace=wrap;html=1;strokeWidth=3;fontSize=14;strokeColor=none;fillColor=#e1d5e7;arcSize=5;" parent="1" vertex="1">
                    <mxGeometry x="200" y="521.25" width="670" height="198.75" as="geometry"/>
                </mxCell>
                <mxCell id="29" value="" style="rounded=1;whiteSpace=wrap;html=1;strokeWidth=3;fontSize=14;strokeColor=none;fillColor=#fff2cc;" parent="1" vertex="1">
                    <mxGeometry x="200" y="401.25" width="670" height="97.5" as="geometry"/>
                </mxCell>
                <mxCell id="28" value="" style="rounded=1;whiteSpace=wrap;html=1;strokeWidth=3;fontSize=14;strokeColor=none;fillColor=#d5e8d4;" parent="1" vertex="1">
                    <mxGeometry x="200" y="278" width="670" height="97.5" as="geometry"/>
                </mxCell>
                <mxCell id="27" value="" style="rounded=1;whiteSpace=wrap;html=1;strokeWidth=3;fontSize=14;strokeColor=none;fillColor=#dae8fc;" parent="1" vertex="1">
                    <mxGeometry x="200" y="156.25" width="670" height="97.5" as="geometry"/>
                </mxCell>
                <mxCell id="9" value="" style="edgeStyle=none;html=1;strokeWidth=3;fontSize=14;fontStyle=1" parent="1" source="2" target="8" edge="1">
                    <mxGeometry relative="1" as="geometry"/>
                </mxCell>
                <mxCell id="2" value="Gula Merah" style="rounded=1;whiteSpace=wrap;html=1;strokeWidth=3;fontSize=14;fontStyle=1" parent="1" vertex="1">
                    <mxGeometry x="230" y="305" width="110" height="50" as="geometry"/>
                </mxCell>
                <mxCell id="3" value="Cacah" style="shape=process;whiteSpace=wrap;html=1;backgroundOutline=1;strokeWidth=3;fontSize=14;fontStyle=1" parent="1" vertex="1">
                    <mxGeometry x="380" y="175" width="120" height="60" as="geometry"/>
                </mxCell>
                <mxCell id="6" value="" style="edgeStyle=none;html=1;fontSize=14;strokeWidth=3;fontStyle=1" parent="1" source="4" target="3" edge="1">
                    <mxGeometry relative="1" as="geometry"/>
                </mxCell>
                <mxCell id="4" value="Sampah Organik" style="rounded=1;whiteSpace=wrap;html=1;strokeWidth=3;fontSize=14;fontStyle=1" parent="1" vertex="1">
                    <mxGeometry x="235" y="179.99" width="100" height="50" as="geometry"/>
                </mxCell>
                <mxCell id="12" value="" style="edgeStyle=none;html=1;strokeWidth=3;fontSize=14;fontStyle=1" parent="1" source="8" target="11" edge="1">
                    <mxGeometry relative="1" as="geometry"/>
                </mxCell>
                <mxCell id="8" value="Iris" style="shape=process;whiteSpace=wrap;html=1;backgroundOutline=1;strokeWidth=3;fontSize=14;fontStyle=1" parent="1" vertex="1">
                    <mxGeometry x="380" y="300" width="120" height="60" as="geometry"/>
                </mxCell>
                <mxCell id="21" value="" style="edgeStyle=none;html=1;strokeWidth=3;fontSize=14;fontStyle=1" parent="1" source="11" target="18" edge="1">
                    <mxGeometry relative="1" as="geometry"/>
                </mxCell>
                <mxCell id="11" value="Campur" style="shape=process;whiteSpace=wrap;html=1;backgroundOutline=1;strokeWidth=3;fontSize=14;fontStyle=1" parent="1" vertex="1">
                    <mxGeometry x="380" y="420" width="120" height="60" as="geometry"/>
                </mxCell>
                <mxCell id="14" style="edgeStyle=none;html=1;entryX=0;entryY=0.5;entryDx=0;entryDy=0;strokeWidth=3;fontSize=14;fontStyle=1" parent="1" source="13" target="11" edge="1">
                    <mxGeometry relative="1" as="geometry"/>
                </mxCell>
                <mxCell id="13" value="Air" style="rounded=1;whiteSpace=wrap;html=1;strokeWidth=3;fontSize=14;fontStyle=1" parent="1" vertex="1">
                    <mxGeometry x="240" y="425" width="100" height="50" as="geometry"/>
                </mxCell>
                <mxCell id="18" value="Campur" style="shape=process;whiteSpace=wrap;html=1;backgroundOutline=1;strokeWidth=3;fontSize=14;fontStyle=1" parent="1" vertex="1">
                    <mxGeometry x="380" y="540" width="120" height="60" as="geometry"/>
                </mxCell>
                <mxCell id="31" value="Gunakan &lt;b&gt;Mesin Pencacah&lt;/b&gt; Organik untuk mencacah&amp;nbsp;&lt;b style=&quot;color: rgb(63, 63, 63); background-color: transparent;&quot;&gt;Sampah Organik&lt;/b&gt;" style="rounded=1;whiteSpace=wrap;html=1;strokeWidth=3;fontSize=14;strokeColor=none;" parent="1" vertex="1">
                    <mxGeometry x="560" y="166.56" width="300.71" height="76.87" as="geometry"/>
                </mxCell>
                <mxCell id="32" value="Iris&amp;nbsp;&lt;b&gt;Gula Merah&lt;/b&gt; untuk mempercepat&lt;div&gt;penguraian Gula&lt;/div&gt;" style="rounded=1;whiteSpace=wrap;html=1;strokeWidth=3;fontSize=14;strokeColor=none;" parent="1" vertex="1">
                    <mxGeometry x="560" y="288.32" width="300.71" height="76.87" as="geometry"/>
                </mxCell>
                <mxCell id="33" value="Masukan &lt;b&gt;Air&lt;/b&gt; dan &lt;b&gt;Gula Merah&lt;/b&gt;&amp;nbsp;yang sudah di Iris ke dalam&amp;nbsp;&lt;span style=&quot;color: rgb(63, 63, 63); background-color: transparent;&quot;&gt;ember dan aduk sampai &lt;/span&gt;&lt;b style=&quot;color: rgb(63, 63, 63); background-color: transparent;&quot;&gt;Gula Merah&lt;/b&gt;&lt;span style=&quot;color: rgb(63, 63, 63); background-color: transparent;&quot;&gt; melarut&amp;nbsp;&lt;/span&gt;&lt;span style=&quot;background-color: transparent; color: rgb(63, 63, 63);&quot;&gt;dengan &lt;/span&gt;&lt;b style=&quot;background-color: transparent; color: rgb(63, 63, 63);&quot;&gt;Air&lt;/b&gt;" style="rounded=1;whiteSpace=wrap;html=1;strokeWidth=3;fontSize=14;strokeColor=none;" parent="1" vertex="1">
                    <mxGeometry x="560" y="411.56" width="300.71" height="76.87" as="geometry"/>
                </mxCell>
                <mxCell id="34" value="Masukan hasil &lt;b&gt;cacah organik&lt;/b&gt;&lt;div&gt;lalu aduk&amp;nbsp;&lt;span style=&quot;color: rgb(63, 63, 63); background-color: transparent;&quot;&gt;hingga merata&lt;/span&gt;&lt;/div&gt;" style="rounded=1;whiteSpace=wrap;html=1;strokeWidth=3;fontSize=14;strokeColor=none;" parent="1" vertex="1">
                    <mxGeometry x="560" y="531.56" width="300.71" height="76.87" as="geometry"/>
                </mxCell>
                <mxCell id="38" value="" style="edgeStyle=none;html=1;strokeWidth=3;fontSize=14;fontStyle=1;entryX=1;entryY=0.5;entryDx=0;entryDy=0;exitX=1;exitY=0.5;exitDx=0;exitDy=0;" edge="1" parent="1" source="3" target="18">
                    <mxGeometry relative="1" as="geometry">
                        <mxPoint x="450" y="490" as="sourcePoint"/>
                        <mxPoint x="450" y="550" as="targetPoint"/>
                        <Array as="points">
                            <mxPoint x="530" y="205"/>
                            <mxPoint x="530" y="570"/>
                        </Array>
                    </mxGeometry>
                </mxCell>
                <mxCell id="41" value="- Masukan hasil campuran kedalam wadah dan tutup dengan rapat&lt;div&gt;- Buka tutup 1x dalam 1 minggu, untuk membuang Gas&lt;/div&gt;&lt;div&gt;- Aduk di hari ke - 7 dan hari ke 30&lt;/div&gt;" style="rounded=1;whiteSpace=wrap;html=1;strokeWidth=3;fontSize=14;strokeColor=none;align=left;spacingLeft=13;" vertex="1" parent="1">
                    <mxGeometry x="210.71" y="628" width="650" height="76.87" as="geometry"/>
                </mxCell>
                <mxCell id="43" value="Sampah Organik" style="rounded=1;whiteSpace=wrap;html=1;strokeWidth=3;fontSize=14;fontStyle=1;strokeColor=none;" vertex="1" parent="1">
                    <mxGeometry x="638" y="70" width="100" height="50" as="geometry"/>
                </mxCell>
                <mxCell id="44" value="Gula Merah" style="rounded=1;whiteSpace=wrap;html=1;strokeWidth=3;fontSize=14;fontStyle=1;strokeColor=none;" vertex="1" parent="1">
                    <mxGeometry x="516" y="70" width="110" height="50" as="geometry"/>
                </mxCell>
                <mxCell id="45" value="Air" style="rounded=1;whiteSpace=wrap;html=1;strokeWidth=3;fontSize=14;fontStyle=1;strokeColor=none;" vertex="1" parent="1">
                    <mxGeometry x="749.71" y="70" width="100" height="50" as="geometry"/>
                </mxCell>
                <mxCell id="46" value="Ember" style="rounded=1;whiteSpace=wrap;html=1;strokeWidth=3;fontSize=14;fontStyle=1;strokeColor=none;" vertex="1" parent="1">
                    <mxGeometry x="392" y="70" width="110" height="50" as="geometry"/>
                </mxCell>
                <mxCell id="47" value="Sendok/Pengaduk Plastik" style="rounded=1;whiteSpace=wrap;html=1;strokeWidth=3;fontSize=14;fontStyle=1;strokeColor=none;" vertex="1" parent="1">
                    <mxGeometry x="219" y="70" width="161" height="50" as="geometry"/>
                </mxCell>
                <mxCell id="48" value="Alat dan Bahan | Pembuatan Eco-Enzyme" style="text;html=1;align=center;verticalAlign=middle;resizable=0;points=[];autosize=1;strokeColor=none;fillColor=none;fontStyle=1;fontSize=23;fontColor=light-dark(#6f0000, #ededed);" vertex="1" parent="1">
                    <mxGeometry x="310" y="18" width="450" height="40" as="geometry"/>
                </mxCell>
            </root>
        </mxGraphModel>
    </diagram>
</mxfile>